<svg width="160" height="160" viewBox="0 0 160 160" xmlns="http://www.w3.org/2000/svg">
  <defs>
    <radialGradient id="bgGrad" cx="30%" cy="20%" r="80%">
      <stop offset="0%" stop-color="#48CFFF"/>
      <stop offset="45%" stop-color="#020617"/>
      <stop offset="100%" stop-color="#020617"/>
    </radialGradient>
    <radialGradient id="coreGrad" cx="35%" cy="30%" r="80%">
      <stop offset="0%" stop-color="#FFFFFF"/>
      <stop offset="40%" stop-color="#48CFFF"/>
      <stop offset="100%" stop-color="#020617"/>
    </radialGradient>
  </defs>

  <!-- Внешний светящийся круг -->
  <circle cx="80" cy="80" r="74" fill="#020617"/>
  <circle cx="80" cy="80" r="74" fill="url(#bgGrad)" opacity="0.95"/>
  <circle cx="80" cy="80" r="74" stroke="#1E293B" stroke-width="2" fill="none"/>

  <!-- Связи между модулями (open-source ERP / graph) -->
  <path d="M40 70 L80 36 L120 70 L104 120 L56 120 Z"
        fill="none"
        stroke="rgba(148,163,184,0.9)"
        stroke-width="3"
        stroke-linejoin="round"/>

  <!-- Узлы/модули -->
  <circle cx="80" cy="36" r="7" fill="#48CFFF"/>
  <circle cx="120" cy="70" r="7" fill="#54E54A"/>
  <circle cx="104" cy="120" r="6.5" fill="#48CFFF"/>
  <circle cx="56" cy="120" r="6.5" fill="#54E54A"/>
  <circle cx="40" cy="70" r="6.5" fill="#48CFFF"/>

  <!-- Центральное «ядро» ERP -->
  <circle cx="80" cy="80" r="20" fill="#020617"/>
  <circle cx="80" cy="80" r="20" fill="url(#coreGrad)"/>
  <circle cx="80" cy="80" r="20" stroke="rgba(148,163,184,0.8)" stroke-width="2" fill="none"/>

  <!-- Небольшие точки вокруг, как «сообщество / открытая экосистема» -->
  <circle cx="80" cy="16" r="3" fill="#48CFFF" opacity="0.7"/>
  <circle cx="134" cy="86" r="3" fill="#54E54A" opacity="0.7"/>
  <circle cx="26" cy="86" r="3" fill="#54E54A" opacity="0.7"/>
  <circle cx="80" cy="144" r="3" fill="#48CFFF" opacity="0.7"/>
</svg>
